# xmcd CD database file
#
# Track frame offsets:
#	150
#	11740
#	31866
#	47831
#	60467
#	73276
#	82446
#	93413
#	101847
#	119428
#	137897
#	157118
#	169940
#
# Disc length: 2451 seconds
#
# Revision: 0
# Processed by: cddbd v1.5.1PL2 Copyright (c) Steve Scherf et al.
# Submitted via: CDex 1.51
#
DISCID=bf09910d
DTITLE=Various Artist - Verve Unmixed 3
DYEAR=2002
DGENRE=Jazz
TTITLE0=Nina Simone - Little Girl Blue
TTITLE1=Billie Holiday - Speak Low
TTITLE2=Anita O'Day - Sing, Sing, Sing
TTITLE3=Sarah Vaughan - Fever
TTITLE4=Shirley Horn - Come Dance With Me
TTITLE5=Blossom Dearie - Just One Of Those Things
TTITLE6=Astrud Gilberto - The Gentle Rain
TTITLE7=Sarah Vaughan - Peter Gunn
TTITLE8=Jimmy Smith - Stay Loose
TTITLE9=Hugh Masekela - The Boys Doin' It
TTITLE10=Nina Simone - Lilac Wine
TTITLE11=Billie Holiday - Yesterdays
TTITLE12=Dinah Washington - Baby, Did You Hear?
EXTD=YEAR: 2002
EXTT0=
EXTT1=
EXTT2=
EXTT3=
EXTT4=
EXTT5=
EXTT6=
EXTT7=
EXTT8=
EXTT9=
EXTT10=
EXTT11=
EXTT12=
PLAYORDER=
